<?xml version="1.0" encoding="UTF-8"?><svg version="1.1" width="390px" height="295px" viewBox="0 0 390.0 295.0" xmlns="http://www.w3.org/2000/svg" xmlns:xlink="http://www.w3.org/1999/xlink"><defs><clipPath id="i0"><path d="M390,0 L390,844 L0,844 L0,0 L390,0 Z"></path></clipPath><clipPath id="i1"><path d="M24.9809835,0 C14.3961361,10.5848474 15.6278542,15.6343699 24.9809835,24.9809835 C15.7172612,15.7172612 10.3957776,14.5852059 0,24.9809835 C10.398437,14.5825465 10.2419212,10.2419212 0,0 C10.1321106,10.1321106 14.4297035,10.55128 24.9809835,0 Z"></path></clipPath></defs><g transform="translate(0.0 -549.0)"><g clip-path="url(#i0)"><g transform="translate(0.0 549.2451473520894)"><g transform="translate(27.10905433827795 24.90516439701226) rotate(44.99999999999999)"><g clip-path="url(#i1)"><polygon points="-9.09494702e-13,-2.27373675e-13 24.9809835,-2.27373675e-13 24.9809835,24.9809835 -9.09494702e-13,24.9809835 -9.09494702e-13,-2.27373675e-13" stroke="none" fill="#F6E2AD"></polygon></g></g><g transform="translate(282.8284456617216 172.91689873427077) rotate(44.99999999999999)"><g clip-path="url(#i1)"><polygon points="0,-2.84217094e-13 24.9809835,-2.84217094e-13 24.9809835,24.9809835 0,24.9809835 0,-2.84217094e-13" stroke="none" fill="#F6E2AD"></polygon></g></g><g transform="translate(369.42723849499225 243.22816024066543) rotate(44.99999999999999)"><g clip-path="url(#i1)"><polygon points="0,-3.12638804e-13 24.9809835,-3.12638804e-13 24.9809835,24.9809835 0,24.9809835 0,-3.12638804e-13" stroke="none" fill="#F6E2AD"></polygon></g></g><g transform="translate(265.1642228308606 239.01486005873568) rotate(44.99999999999999)"><g clip-path="url(#i1)"><polygon points="0,2.84217094e-14 24.9809835,2.84217094e-14 24.9809835,24.9809835 0,24.9809835 0,2.84217094e-14" stroke="none" fill="#F6E2AD"></polygon></g></g><g transform="translate(132.50000000000003 239.01486005873568) rotate(44.99999999999999)"><g clip-path="url(#i1)"><polygon points="0,4.26325641e-14 24.9809835,4.26325641e-14 24.9809835,24.9809835 0,24.9809835 0,4.26325641e-14" stroke="none" fill="#F6E2AD"></polygon></g></g><g transform="translate(35.10905433827795 228.69329089880722) rotate(44.99999999999999)"><g clip-path="url(#i1)"><polygon points="0,-1.77635684e-15 24.9809835,-1.77635684e-15 24.9809835,24.9809835 0,24.9809835 0,-1.77635684e-15" stroke="none" fill="#F6E2AD"></polygon></g></g><g transform="translate(93.39030433827794 50.810117553130866) rotate(44.99999999999999)"><g clip-path="url(#i1)"><polygon points="0,-2.55795385e-13 24.9809835,-2.55795385e-13 24.9809835,24.9809835 0,24.9809835 0,-2.55795385e-13" stroke="none" fill="#F6E2AD"></polygon></g></g><g transform="translate(335.82111415430427 149.6122877508722) rotate(44.99999999999999)"><g clip-path="url(#i1)"><polygon points="-9.09494702e-13,-1.70530257e-13 24.9809835,-1.70530257e-13 24.9809835,24.9809835 -9.09494702e-13,24.9809835 -9.09494702e-13,-1.70530257e-13" stroke="none" fill="#F6E2AD"></polygon></g></g><g transform="translate(296.8357771691385 35.328445661722824) rotate(44.99999999999999)"><g clip-path="url(#i1)"><polygon points="0,1.13686838e-13 24.9809835,1.13686838e-13 24.9809835,24.9809835 0,24.9809835 0,1.13686838e-13" stroke="none" fill="#F6E2AD"></polygon></g></g><g transform="translate(372.33577716913896 84.09062981704922) rotate(44.99999999999999)"><g clip-path="url(#i1)"><polygon points="0,5.68434189e-14 24.9809835,5.68434189e-14 24.9809835,24.9809835 0,24.9809835 0,5.68434189e-14" stroke="none" fill="#F6E2AD"></polygon></g></g><g transform="translate(361.6176684925831 -1.5276668818842154e-13) rotate(44.99999999999999)"><g clip-path="url(#i1)"><polygon points="0,5.68434189e-14 24.9809835,5.68434189e-14 24.9809835,24.9809835 0,24.9809835 0,5.68434189e-14" stroke="none" fill="#F6E2AD"></polygon></g></g><g transform="translate(44.773277169138986 123.25485264791025) rotate(44.99999999999999)"><g clip-path="url(#i1)"><polygon points="0,0 24.9809835,0 24.9809835,24.9809835 0,24.9809835 0,0" stroke="none" fill="#F6E2AD"></polygon></g></g><g transform="translate(99.55071216833632 175.28016439701315) rotate(44.99999999999999)"><g clip-path="url(#i1)"><polygon points="0,4.26325641e-14 24.9809835,4.26325641e-14 24.9809835,24.9809835 0,24.9809835 0,4.26325641e-14" stroke="none" fill="#F6E2AD"></polygon></g></g><g transform="translate(191.189578915029 188.07012496395583) rotate(44.99999999999999)"><g clip-path="url(#i1)"><polygon points="0,-2.84217094e-14 24.9809835,-2.84217094e-14 24.9809835,24.9809835 0,24.9809835 0,-2.84217094e-14" stroke="none" fill="#F6E2AD"></polygon></g></g></g></g></g></svg>