<?xml version="1.0" encoding="UTF-8"?><svg version="1.1" width="390px" height="286px" viewBox="0 0 390.0 286.0" xmlns="http://www.w3.org/2000/svg" xmlns:xlink="http://www.w3.org/1999/xlink"><defs><clipPath id="i0"><path d="M390,0 L390,844 L0,844 L0,0 L390,0 Z"></path></clipPath><clipPath id="i1"><path d="M24.9809835,0 C14.3961361,10.5848474 15.6278542,15.6343699 24.9809835,24.9809835 C15.7172612,15.7172612 10.3957776,14.5852059 0,24.9809835 C10.398437,14.5825465 10.2419212,10.2419212 0,0 C10.1321106,10.1321106 14.4297035,10.55128 24.9809835,0 Z"></path></clipPath></defs><g clip-path="url(#i0)"><g transform="translate(300.4926684925826 14.835039433057158) rotate(44.99999999999999)"><g clip-path="url(#i1)"><polygon points="0,0 24.9809835,0 24.9809835,24.9809835 0,24.9809835 0,0" stroke="none" fill="#F6E2AD"></polygon></g></g><g transform="translate(199.21874999999997 38.62412009938119) rotate(44.99999999999999)"><g clip-path="url(#i1)"><polygon points="0,1.13686838e-13 24.9809835,1.13686838e-13 24.9809835,24.9809835 0,24.9809835 0,1.13686838e-13" stroke="none" fill="#F6E2AD"></polygon></g></g><g transform="translate(27.109054338277893 26.455135845691824) rotate(44.99999999999999)"><g clip-path="url(#i1)"><polygon points="0,0 24.9809835,0 24.9809835,24.9809835 0,24.9809835 0,0" stroke="none" fill="#F6E2AD"></polygon></g></g><g transform="translate(351.7630156641307 93.08280433827697) rotate(44.99999999999999)"><g clip-path="url(#i1)"><polygon points="0,1.13686838e-13 24.9809835,1.13686838e-13 24.9809835,24.9809835 0,24.9809835 0,1.13686838e-13" stroke="none" fill="#F6E2AD"></polygon></g></g><g transform="translate(369.4272384949922 168.16937759377498) rotate(44.99999999999999)"><g clip-path="url(#i1)"><polygon points="0,1.13686838e-13 24.9809835,1.13686838e-13 24.9809835,24.9809835 0,24.9809835 0,1.13686838e-13" stroke="none" fill="#F6E2AD"></polygon></g></g><g transform="translate(351.7630156641307 38.62412009938073) rotate(44.99999999999999)"><g clip-path="url(#i1)"><polygon points="0,0 24.9809835,0 24.9809835,24.9809835 0,24.9809835 0,0" stroke="none" fill="#F6E2AD"></polygon></g></g><g transform="translate(115.96646132585461 70.22465150843466) rotate(44.99999999999999)"><g clip-path="url(#i1)"><polygon points="0,0 24.9809835,0 24.9809835,24.9809835 0,24.9809835 0,0" stroke="none" fill="#F6E2AD"></polygon></g></g><g transform="translate(35.10905433827789 114.67155433827732) rotate(44.99999999999999)"><g clip-path="url(#i1)"><polygon points="0,-5.68434189e-14 24.9809835,-5.68434189e-14 24.9809835,24.9809835 0,24.9809835 0,-5.68434189e-14" stroke="none" fill="#F6E2AD"></polygon></g></g><g transform="translate(326.289222830861 228.17155433827685) rotate(44.99999999999999)"><g clip-path="url(#i1)"><polygon points="0,0 24.9809835,0 24.9809835,24.9809835 0,24.9809835 0,0" stroke="none" fill="#F6E2AD"></polygon></g></g><g transform="translate(35.10905433827835 245.8357771691388) rotate(44.99999999999999)"><g clip-path="url(#i1)"><polygon points="0,1.13686838e-13 24.9809835,1.13686838e-13 24.9809835,24.9809835 0,24.9809835 0,1.13686838e-13" stroke="none" fill="#F6E2AD"></polygon></g></g><g transform="translate(132.44483150741732 8.790913014831244) rotate(44.99999999999999)"><g clip-path="url(#i1)"><polygon points="0,-1.13686838e-13 24.9809835,-1.13686838e-13 24.9809835,24.9809835 0,24.9809835 0,-1.13686838e-13" stroke="none" fill="#F6E2AD"></polygon></g></g><g transform="translate(269.28124999999994 70.22465150843466) rotate(44.99999999999999)"><g clip-path="url(#i1)"><polygon points="0,0 24.9809835,0 24.9809835,24.9809835 0,24.9809835 0,0" stroke="none" fill="#F6E2AD"></polygon></g></g><g transform="translate(216.88297283086055 93.08280433827743) rotate(44.99999999999999)"><g clip-path="url(#i1)"><polygon points="0,1.13686838e-13 24.9809835,1.13686838e-13 24.9809835,24.9809835 0,24.9809835 0,1.13686838e-13" stroke="none" fill="#F6E2AD"></polygon></g></g></g></svg>